<mxfile host="65bd71144e">
    <diagram id="L5m-tbIDf9zuestlk2K3" name="第1頁">
        <mxGraphModel dx="982" dy="1945" grid="1" gridSize="10" guides="1" tooltips="1" connect="1" arrows="1" fold="1" page="1" pageScale="1" pageWidth="827" pageHeight="1169" math="0" shadow="0">
            <root>
                <mxCell id="0"/>
                <mxCell id="1" parent="0"/>
                <mxCell id="97" value="" style="strokeWidth=1;shadow=0;dashed=0;align=center;html=1;shape=mxgraph.mockup.containers.browserWindow;rSize=0;strokeColor=#666666;strokeColor2=#008cff;strokeColor3=#c4c4c4;mainText=,;recursiveResize=0;movable=1;resizable=1;rotatable=1;deletable=1;editable=1;connectable=1;container=0;" vertex="1" parent="1">
                    <mxGeometry x="605" y="-400" width="795" height="550" as="geometry"/>
                </mxCell>
                <mxCell id="103" value="" style="shape=sumEllipse;perimeter=ellipsePerimeter;whiteSpace=wrap;html=1;backgroundOutline=1;shadow=1;fontSize=11;fontColor=#FFFFFF;" vertex="1" parent="1">
                    <mxGeometry x="1385" y="-384.5" width="20" height="20" as="geometry"/>
                </mxCell>
                <mxCell id="98" value="&lt;font color=&quot;#ffffff&quot; style=&quot;font-size: 11px;&quot;&gt;YAMAHA台灣山葉機車&lt;/font&gt;" style="strokeWidth=1;shadow=1;dashed=0;align=center;html=1;shape=mxgraph.mockup.containers.anchor;fontSize=17;fontColor=#666666;align=left;" vertex="1" parent="1">
                    <mxGeometry x="666" y="-377" width="130" height="26" as="geometry"/>
                </mxCell>
                <mxCell id="99" value="&lt;a href=&quot;https://www.yamaha-motor.com.tw/index.aspx&quot;&gt;&lt;font color=&quot;#ffffff&quot;&gt;yamaha-motor.com.tw&lt;/font&gt;&lt;/a&gt;" style="strokeWidth=1;shadow=0;dashed=0;align=center;html=1;shape=mxgraph.mockup.containers.anchor;rSize=0;fontSize=17;fontColor=#666666;align=left;" vertex="1" parent="1">
                    <mxGeometry x="740" y="-330" width="250" height="26" as="geometry"/>
                </mxCell>
                <mxCell id="105" value="" style="shape=lineEllipse;perimeter=ellipsePerimeter;whiteSpace=wrap;html=1;backgroundOutline=1;shadow=1;fontSize=11;fontColor=#FFFFFF;" vertex="1" parent="1">
                    <mxGeometry x="1335" y="-385" width="20" height="20" as="geometry"/>
                </mxCell>
                <mxCell id="114" value="" style="group" vertex="1" connectable="0" parent="1">
                    <mxGeometry x="1364" y="-381.5" width="16.5" height="16.5" as="geometry"/>
                </mxCell>
                <mxCell id="118" value="" style="ellipse;whiteSpace=wrap;html=1;aspect=fixed;shadow=1;fontSize=11;fontColor=#FFFFFF;" vertex="1" parent="114">
                    <mxGeometry x="-4.5" y="-3.5" width="20" height="20" as="geometry"/>
                </mxCell>
                <mxCell id="111" value="" style="rounded=0;whiteSpace=wrap;html=1;shadow=1;fontSize=11;fontColor=#FFFFFF;" vertex="1" parent="114">
                    <mxGeometry x="2" width="10" height="10" as="geometry"/>
                </mxCell>
                <mxCell id="112" value="" style="rounded=0;whiteSpace=wrap;html=1;shadow=1;fontSize=11;fontColor=#FFFFFF;" vertex="1" parent="114">
                    <mxGeometry x="-1" y="3" width="10" height="10" as="geometry"/>
                </mxCell>
                <mxCell id="145" value="" style="verticalLabelPosition=bottom;shadow=0;dashed=0;align=center;html=1;verticalAlign=top;strokeWidth=1;shape=mxgraph.mockup.misc.shoppingCart;strokeColor=#FFFFFF;fontSize=11;fontColor=#FFFFFF;" vertex="1" parent="1">
                    <mxGeometry x="1330.5" y="-272" width="31.6" height="32" as="geometry"/>
                </mxCell>
                <mxCell id="146" value="" style="shape=actor;whiteSpace=wrap;html=1;shadow=1;strokeColor=#FFFFFF;strokeWidth=3;fontSize=11;fontColor=#FFFFFF;" vertex="1" parent="1">
                    <mxGeometry x="1367" y="-271" width="26" height="30" as="geometry"/>
                </mxCell>
                <mxCell id="149" value="" style="group" vertex="1" connectable="0" parent="1">
                    <mxGeometry x="620" y="-272" width="170" height="62" as="geometry"/>
                </mxCell>
                <mxCell id="147" value="" style="shape=ext;double=1;rounded=0;whiteSpace=wrap;html=1;" vertex="1" parent="149">
                    <mxGeometry x="3.966666666666667" width="162.06666666666666" height="62.00000000000001" as="geometry"/>
                </mxCell>
                <mxCell id="148" value="LOGO" style="text;strokeColor=none;fillColor=none;html=1;fontSize=24;fontStyle=1;verticalAlign=middle;align=center;" vertex="1" parent="149">
                    <mxGeometry y="7.750000000000001" width="170" height="48.05" as="geometry"/>
                </mxCell>
                <mxCell id="150" value="" style="group" vertex="1" connectable="0" parent="1">
                    <mxGeometry x="800" y="-270" width="520" height="30" as="geometry"/>
                </mxCell>
                <mxCell id="120" value="樂騎生活" style="strokeWidth=1;shadow=0;dashed=0;align=center;html=1;shape=mxgraph.mockup.forms.rrect;rSize=0;fontSize=17;movable=1;resizable=1;rotatable=1;deletable=1;editable=1;connectable=1;strokeColor=#FFFFFF;" vertex="1" parent="150">
                    <mxGeometry width="74.28523191407848" height="30" as="geometry"/>
                </mxCell>
                <mxCell id="121" value="產品" style="strokeColor=#FFFFFF;fillColor=default;gradientColor=inherit;strokeWidth=1;shadow=0;dashed=0;align=center;html=1;shape=mxgraph.mockup.forms.rrect;rSize=0;fontSize=17;fontColor=default;movable=1;resizable=1;rotatable=1;deletable=1;editable=1;connectable=1;" vertex="1" parent="150">
                    <mxGeometry x="74.28523191407851" width="74.28523191407848" height="30" as="geometry"/>
                </mxCell>
                <mxCell id="122" value="售後服務" style="strokeColor=#FFFFFF;fillColor=default;gradientColor=inherit;strokeWidth=1;shadow=0;dashed=0;align=center;html=1;shape=mxgraph.mockup.forms.rrect;rSize=0;fontSize=17;fontColor=default;movable=1;resizable=1;rotatable=1;deletable=1;editable=1;connectable=1;" vertex="1" parent="150">
                    <mxGeometry x="148.57046382815702" width="74.28523191407848" height="30" as="geometry"/>
                </mxCell>
                <mxCell id="123" value="消息中心" style="strokeColor=#FFFFFF;fillColor=default;gradientColor=inherit;strokeWidth=1;shadow=0;dashed=0;align=center;html=1;shape=mxgraph.mockup.forms.rrect;rSize=0;fontSize=17;fontColor=default;movable=1;resizable=1;rotatable=1;deletable=1;editable=1;connectable=1;" vertex="1" parent="150">
                    <mxGeometry x="222.85569574223553" width="74.28523191407848" height="30" as="geometry"/>
                </mxCell>
                <mxCell id="124" value="企業簡報" style="strokeColor=#FFFFFF;fillColor=default;gradientColor=inherit;strokeWidth=1;shadow=0;dashed=0;align=center;html=1;shape=mxgraph.mockup.forms.rrect;rSize=0;fontSize=17;fontColor=default;movable=1;resizable=1;rotatable=1;deletable=1;editable=1;connectable=1;" vertex="1" parent="150">
                    <mxGeometry x="297.1409276563139" width="74.28523191407848" height="30" as="geometry"/>
                </mxCell>
                <mxCell id="125" value="賽事情報" style="strokeColor=#FFFFFF;fillColor=default;gradientColor=inherit;strokeWidth=1;shadow=0;dashed=0;align=center;html=1;shape=mxgraph.mockup.forms.rrect;rSize=0;fontSize=17;fontColor=default;movable=1;resizable=1;rotatable=1;deletable=1;editable=1;connectable=1;" vertex="1" parent="150">
                    <mxGeometry x="371.42615957039254" width="74.28523191407848" height="30" as="geometry"/>
                </mxCell>
                <mxCell id="137" value="經銷據點" style="strokeColor=#FFFFFF;fillColor=default;gradientColor=inherit;strokeWidth=1;shadow=0;dashed=0;align=center;html=1;shape=mxgraph.mockup.forms.rrect;rSize=0;fontSize=17;fontColor=default;movable=1;resizable=1;rotatable=1;deletable=1;editable=1;connectable=1;" vertex="1" parent="150">
                    <mxGeometry x="445.71476808592155" width="74.28523191407848" height="30" as="geometry"/>
                </mxCell>
                <mxCell id="152" value="&lt;font style=&quot;font-size: 15px;&quot; color=&quot;#808080&quot;&gt;Fun Ride&amp;nbsp;&lt;/font&gt;" style="strokeWidth=1;shadow=0;dashed=0;align=center;html=1;shape=mxgraph.mockup.forms.rrect;rSize=0;fontSize=17;movable=1;resizable=1;rotatable=1;deletable=1;editable=1;connectable=1;strokeColor=#FFFFFF;" vertex="1" parent="1">
                    <mxGeometry x="800" y="-240" width="74.1909468120337" height="31.000000000000004" as="geometry"/>
                </mxCell>
                <mxCell id="153" value="&lt;font color=&quot;#808080&quot;&gt;Products&lt;/font&gt;" style="strokeColor=default;fillColor=default;gradientColor=inherit;strokeWidth=1;shadow=0;dashed=0;align=center;html=1;shape=mxgraph.mockup.forms.rrect;rSize=0;fontSize=17;fontColor=default;movable=1;resizable=1;rotatable=1;deletable=1;editable=1;connectable=1;" vertex="1" parent="1">
                    <mxGeometry x="874.1909468120338" y="-240" width="74.1909468120337" height="31.000000000000004" as="geometry"/>
                </mxCell>
                <mxCell id="154" value="&lt;font color=&quot;#808080&quot; style=&quot;font-size: 15px;&quot;&gt;After Sales&lt;/font&gt;" style="strokeColor=#FFFFFF;fillColor=default;gradientColor=inherit;strokeWidth=1;shadow=0;dashed=0;align=center;html=1;shape=mxgraph.mockup.forms.rrect;rSize=0;fontSize=17;fontColor=default;movable=1;resizable=1;rotatable=1;deletable=1;editable=1;connectable=1;" vertex="1" parent="1">
                    <mxGeometry x="948.3818936240675" y="-240" width="74.1909468120337" height="31.000000000000004" as="geometry"/>
                </mxCell>
                <mxCell id="155" value="&lt;font color=&quot;#808080&quot;&gt;News&lt;/font&gt;" style="strokeColor=#FFFFFF;fillColor=default;gradientColor=inherit;strokeWidth=1;shadow=0;dashed=0;align=center;html=1;shape=mxgraph.mockup.forms.rrect;rSize=0;fontSize=17;fontColor=default;movable=1;resizable=1;rotatable=1;deletable=1;editable=1;connectable=1;" vertex="1" parent="1">
                    <mxGeometry x="1022.5728404361012" y="-240" width="74.1909468120337" height="31.000000000000004" as="geometry"/>
                </mxCell>
                <mxCell id="156" value="&lt;font color=&quot;#808080&quot;&gt;About us&lt;/font&gt;" style="strokeColor=#FFFFFF;fillColor=default;gradientColor=inherit;strokeWidth=1;shadow=0;dashed=0;align=center;html=1;shape=mxgraph.mockup.forms.rrect;rSize=0;fontSize=17;fontColor=default;movable=1;resizable=1;rotatable=1;deletable=1;editable=1;connectable=1;" vertex="1" parent="1">
                    <mxGeometry x="1096.7637872481348" y="-240" width="74.1909468120337" height="31.000000000000004" as="geometry"/>
                </mxCell>
                <mxCell id="157" value="&lt;font color=&quot;#808080&quot;&gt;Racing&lt;/font&gt;" style="strokeColor=#FFFFFF;fillColor=default;gradientColor=inherit;strokeWidth=1;shadow=0;dashed=0;align=center;html=1;shape=mxgraph.mockup.forms.rrect;rSize=0;fontSize=17;fontColor=default;movable=1;resizable=1;rotatable=1;deletable=1;editable=1;connectable=1;" vertex="1" parent="1">
                    <mxGeometry x="1170.9547340601687" y="-240" width="74.1909468120337" height="31.000000000000004" as="geometry"/>
                </mxCell>
                <mxCell id="158" value="&lt;font color=&quot;#808080&quot;&gt;Dealer&lt;/font&gt;" style="strokeColor=#FFFFFF;fillColor=default;gradientColor=inherit;strokeWidth=1;shadow=0;dashed=0;align=center;html=1;shape=mxgraph.mockup.forms.rrect;rSize=0;fontSize=17;fontColor=default;movable=1;resizable=1;rotatable=1;deletable=1;editable=1;connectable=1;" vertex="1" parent="1">
                    <mxGeometry x="1245.1490531879665" y="-240" width="74.1909468120337" height="31.000000000000004" as="geometry"/>
                </mxCell>
                <mxCell id="159" value="" style="shape=process;whiteSpace=wrap;html=1;backgroundOutline=1;shadow=1;strokeColor=#666666;strokeWidth=3;fontSize=15;fontColor=#808080;size=0.1677175283732661;" vertex="1" parent="1">
                    <mxGeometry x="607" y="-198" width="793" height="290" as="geometry"/>
                </mxCell>
                <mxCell id="165" value="" style="triangle;whiteSpace=wrap;html=1;shadow=1;strokeColor=#666666;strokeWidth=3;fontSize=15;fontColor=#808080;rotation=-180;" vertex="1" parent="1">
                    <mxGeometry x="620" y="-93" width="50" height="80" as="geometry"/>
                </mxCell>
                <mxCell id="167" value="" style="triangle;whiteSpace=wrap;html=1;shadow=1;strokeColor=#666666;strokeWidth=3;fontSize=15;fontColor=#808080;rotation=0;" vertex="1" parent="1">
                    <mxGeometry x="1336" y="-80" width="50" height="80" as="geometry"/>
                </mxCell>
                <mxCell id="181" value="" style="verticalLabelPosition=bottom;shadow=0;dashed=0;align=center;html=1;verticalAlign=top;strokeWidth=1;shape=mxgraph.mockup.forms.splitter;strokeColor=#999999;fontSize=15;fontColor=#808080;" vertex="1" parent="1">
                    <mxGeometry x="743" y="62" width="520" height="30" as="geometry"/>
                </mxCell>
            </root>
        </mxGraphModel>
    </diagram>
</mxfile>